# AST/ASF file generated using VICON BodyLanguage
# -----------------------------------------------
:version 1.10
:name VICON
:units
  mass 1.0
  length 0.45
  angle deg
:documentation
   .ast/.asf automatically generated from VICON data using
   VICON BodyBuilder and BodyLanguage model FoxedUp or BRILLIANT.MOD
:root
   order TX TY TZ RX RY RZ
   axis XYZ
   position 0 0 0  
   orientation 0 0 0 
:bonedata
  begin
     id 1 
     name lhipjoint
     direction 0.707368 -0.647095 0.284426 
     length 2.60678 
     axis 0 0 0  XYZ
  end
  begin
     id 2 
     name lfemur
     direction 0.34202 -0.939693 0  
     length 6.63812  
     axis 0 0 20  XYZ
    dof rx ry rz
    limits (-160.0 20.0)
           (-70.0 70.0)
           (-60.0 70.0)
  end
  begin
     id 3 
     name ltibia
     direction 0.34202 -0.939693 0   
     length 7.51178   
     axis 0 0 20   XYZ
    dof rx
    limits (-10.0 170.0)
  end
  begin
     id 4 
     name lfoot
     direction 0.121251 -0.333133 0.935051   
     length 1.83716   
     axis -90 7.62852e-016 20   XYZ
    dof rx rz
    limits (-45.0 90.0)
           (-70.0 20.0)
  end
  begin
     id 5 
     name ltoes
     direction 1.53611e-011 -4.21962e-011 1   
     length 0.916133   
     axis -90 7.62852e-016 20   XYZ
    dof rx
    limits (-90.0 20.0)
  end
  begin
     id 6 
     name rhipjoint
     direction -0.692419 -0.660507 0.290321   
     length 2.55385  
     axis 0 0 0  XYZ 
  end
  begin
     id 7 
     name rfemur
     direction -0.34202 -0.939693 0   
     length 7.29079   
     axis 0 0 -20   XYZ
    dof rx ry rz
    limits (-160.0 20.0)
           (-70.0 70.0)
           (-70.0 60.0)
  end
  begin
     id 8 
     name rtibia
     direction -0.34202 -0.939693 0   
     length 7.47143   
     axis 0 0 -20   XYZ
    dof rx
    limits (-10.0 170.0)
 end
 begin
     id 9 
     name rfoot
     direction -0.119907 -0.329441 0.936532   
     length 1.79439  
     axis -90 -7.62852e-016 -20   XYZ
    dof rx rz
    limits (-45.0 90.0)
           (-20.0 70.0)
  end
  begin
     id 10 
     name rtoes
     direction -1.53571e-011 -4.21961e-011 1   
     length 0.896039   
     axis -90 -7.62852e-016 -20   XYZ
    dof rx
    limits (-90.0 20.0)
  end
  begin
     id 11 
     name lowerback
     direction 0.0367721 0.992912 -0.113016   
     length 1.73542   
     axis 0 0 0   XYZ
    dof rx ry rz
    limits (-20.0 45.0)
           (-30.0 30.0)
           (-30.0 30.0)
  end
  begin
     id 12 
     name upperback
     direction -0.000314626 0.990678 0.136227   
     length 1.7514   
     axis 0 0 0   XYZ
    dof rx ry rz
    limits (-20.0 45.0)
           (-30.0 30.0)
           (-30.0 30.0)
  end
  begin
     id 13 
     name thorax
     direction -0.0226159 0.981151 0.191917   
     length 1.71471   
     axis 0 0 0   XYZ
    dof rx ry rz
    limits (-20.0 45.0)
           (-30.0 30.0)
           (-30.0 30.0)
  end
  begin
     id 14 
     name lowerneck
     direction 0.0219333 0.998071 0.0580739   
     length 1.65882   
     axis 0 0 0   XYZ
    dof rx ry rz
    limits (-20.0 45.0)
           (-30.0 30.0)
           (-30.0 30.0)
  end
  begin
     id 15 
     name upperneck
     direction 0.0384529 0.980058 -0.194957   
     length 1.6612   
     axis 0 0 0   XYZ
    dof rx ry rz
    limits (-20.0 45.0)
           (-30.0 30.0)
           (-30.0 30.0)
  end
  begin
     id 16
     name head
     direction 0.00592123 0.997421 -0.0715234  
     length 1.68077  
     axis 0 0 0   XYZ
    dof rx ry rz
    limits (-20.0 45.0)
           (-30.0 30.0)
           (-30.0 30.0)
  end
  begin
     id 17 
     name lclavicle
     direction 0.904803 0.417826 0.0821728  
     length 3.42227  
     axis 0 0 0   XYZ
    dof ry rz
    limits (-20.0 10.0)
           (0.0 20.0)
  end
  begin
     id 18 
     name lhumerus
     direction 1 -4.48965e-011 -2.68786e-027   
     length 5.11878   
     axis -180 -30 -90   XYZ
    dof rx ry rz
    limits (-60.0 90.0)
           (-90.0 90.0)
           (-90.0 90.0)
  end
  begin
     id 19
     name lradius
     direction 1 -4.48965e-011 2.61168e-028   
     length 3.59971   
     axis -180 -30 -90   XYZ
    dof rx
    limits (-10.0 170.0)
  end
  begin
     id 20
     name lwrist
     direction 1 -4.48965e-011 1.58672e-027   
     length 1.79985   
     axis -1.65735e-015 90 90   XYZ
    dof ry
    limits (-180.0 0.0)
 end
  begin
     id 21 
     name lhand
     direction 1 -4.48942e-011 3.17344e-027   
     length 0.62877   
     axis -2.02492e-015 90 90   XYZ
    dof rx rz
    limits (-90.0 90.0)
           (-45.0 45.0)
  end
  begin
     id 22 
     name lfingers
     direction 1 -4.49011e-011 6.34687e-027   
     length 0.506931   
     axis -4.04985e-015 90 90   XYZ
    dof rx
    limits (0.0 90.0)
  end
  begin
     id 23
     name lthumb
     direction 0.707107 -6.34982e-011 0.707107   
     length 0.727854   
     axis -90 45 2.85299e-015   XYZ
    dof rx rz
    limits (-45.0 45.0)
           (-45.0 45.0)
  end
  begin
     id 24 
     name rclavicle
     direction -0.945647 0.32488 0.0143075   
     length 3.52737  
     axis 0 0 0   XYZ 
    dof ry rz
    limits (-10.0 20.0)
           (-20.0 0.0)
  end
  begin
     id 25 
     name rhumerus
     direction -1 -4.48962e-011 1.92182e-027  
     length 5.4902   
     axis -180 30 90   XYZ
    dof rx ry rz
    limits (-90.0 60.0)
           (-90.0 90.0)
           (-90.0 90.0)
  end
  begin
     id 26 
     name rradius
     direction -1 -4.48967e-011 -5.97193e-028   
     length 3.20659   
     axis -180 30 90   XYZ
    dof rx
    limits (-10.0 170.0)
  end
  begin
     id 27 
     name rwrist
     direction -1 -4.48964e-011 1.58672e-027   
     length 1.6033   
     axis -1.65735e-015 -90 -90   XYZ
    dof ry
    limits (-180.0 0.0)
  end
  begin
     id 28
     name rhand
     direction -1 -4.49006e-011 3.17344e-027   
     length 0.691885   
     axis -2.02492e-015 -90 -90   XYZ
    dof rx rz
    limits (-90.0 90.0)
           (-45.0 45.0)
  end
  begin
     id 29
     name rfingers
     direction -1 -4.48908e-011 6.34687e-027   
     length 0.557815   
     axis -4.04985e-015 -90 -90   XYZ
    dof rx
    limits (0.0 90.0)
  end
  begin
     id 30
     name rthumb
     direction -0.707107 -6.34999e-011 0.707107   
     length 0.800915   
     axis -90 -45 -2.85299e-015   XYZ
    dof rx rz
    limits (-45.0 45.0)
           (-45.0 45.0)
  end
:hierarchy
  begin
    root lhipjoint rhipjoint lowerback
    lhipjoint lfemur
    lfemur ltibia
    ltibia lfoot
    lfoot ltoes
    rhipjoint rfemur
    rfemur rtibia
    rtibia rfoot
    rfoot rtoes
    lowerback upperback
    upperback thorax
    thorax lowerneck lclavicle rclavicle
    lowerneck upperneck
    upperneck head
    lclavicle lhumerus
    lhumerus lradius
    lradius lwrist
    lwrist lhand lthumb
    lhand lfingers
    rclavicle rhumerus
    rhumerus rradius
    rradius rwrist
    rwrist rhand rthumb
    rhand rfingers
  end

#!OML:ASF I:\Actors\actors\Patient Classification 1\Patient 1\Session 1\Subject1.ASF
:FULLY-SPECIFIED
:DEGREES
62
root -0.414204 17.5016 7.81291 7.47464 -2.15469 -8.00945
lowerback 2.5318 -0.0374001 4.59965
upperback -8.37478 0.452601 1.6865
thorax -10.3184 -0.0731502 -0.819163
lowerneck 0.720476 -14.8059 -16.0733
upperneck 17.6755 -23.022 16.4768
head 9.25225 -11.1374 5.69164
rclavicle 7.7526e-015 1.94809e-014
rhumerus -53.4035 -36.0045 -55.8247
rradius 17.6139
rwrist 59.9486
rhand 2.43366 -29.2601
rfingers 7.12502
rthumb 27.9192 -57.2046
lclavicle 7.7526e-015 1.94809e-014
lhumerus -42.9359 15.6194 78.342
lradius 22.7397
lwrist -22.2511
lhand -19.5999 -8.58218
lfingers 7.12502
lthumb 6.72604 21.291
rfemur -0.806498 25.1209 26.1812
rtibia 1.67095
rfoot -11.362 -21.5526
rtoes 1.24818
lfemur 8.00993 -40.9087 -15.3569
ltibia -4.34654
lfoot -17.4532 49.136
ltoes 7.396
63
root -0.413573 17.5022 7.81402 7.45413 -2.17438 -8.03186
lowerback 2.55194 -0.0334825 4.62075
upperback -8.35345 0.45952 1.68143
thorax -10.3062 -0.0712847 -0.83737
lowerneck 0.610569 -14.8111 -16.0014
upperneck 17.7246 -23.0163 16.4305
head 9.2726 -11.1251 5.65817
rclavicle 1.60519e-014 -1.70955e-014
rhumerus -53.4731 -36.116 -55.7377
rradius 17.6419
rwrist 60.047
rhand 2.46538 -29.2634
rfingers 7.12502
rthumb 27.9496 -57.203
lclavicle 1.60519e-014 -1.70955e-014
lhumerus -42.9088 15.6265 78.3056
lradius 22.7251
lwrist -22.2025
lhand -19.6068 -8.67531
lfingers 7.12502
lthumb 6.71939 21.1981
rfemur -0.782236 25.1055 26.2136
rtibia 1.67475
rfoot -11.3133 -21.5283
rtoes 1.09902
lfemur 8.07169 -40.9553 -15.3792
ltibia -4.34928
lfoot -17.6186 49.1941
ltoes 7.58641
64
root -0.413113 17.5029 7.81419 7.45384 -2.20547 -8.06748
lowerback 2.55187 -0.0326309 4.63902
upperback -8.33354 0.46191 1.68954
thorax -10.2838 -0.070582 -0.839389
lowerneck 0.580574 -14.7971 -15.4616
upperneck 17.4704 -22.8638 16.0012
head 9.03608 -11.0525 5.46825
rclavicle 1.10325e-014 -1.23246e-014
rhumerus -53.5376 -36.2387 -55.6444
rradius 17.6638
rwrist 60.177
rhand 2.47092 -29.1901
rfingers 7.12502
rthumb 27.9549 -57.1288
lclavicle 1.10325e-014 -1.23246e-014
lhumerus -42.9025 15.6353 78.2726
lradius 22.7275
lwrist -22.1152
lhand -19.6536 -8.8406
lfingers 7.12502
lthumb 6.67426 21.0342
rfemur -0.795551 25.0865 26.2542
rtibia 1.70076
rfoot -11.271 -21.5019
rtoes 0.911902
lfemur 8.10025 -40.9771 -15.3607
ltibia -4.35533
lfoot -17.7835 49.2317
ltoes 7.86138
65
root -0.412661 17.5027 7.81434 7.48117 -2.25088 -8.05458
lowerback 2.51908 -0.0324914 4.59319
upperback -8.32357 0.457011 1.70313
thorax -10.2528 -0.0679399 -0.798943
lowerneck 0.484211 -14.794 -13.9614
upperneck 16.8955 -22.4884 14.6201
head 8.42926 -10.8832 4.88014
rclavicle 3.32964e-015 1.98785e-015
rhumerus -53.5654 -36.2529 -55.6007
rradius 17.6959
rwrist 60.2026
rhand 2.47197 -29.0736
rfingers 7.12502
rthumb 27.9559 -57.0121
lclavicle 3.32964e-015 1.98785e-015
lhumerus -42.9375 15.502 78.3543
lradius 22.8209
lwrist -21.8616
lhand -19.7223 -8.93058
lfingers 7.12502
lthumb 6.60789 20.9463
rfemur -0.840842 25.0578 26.219
rtibia 1.71561
rfoot -11.264 -21.445
rtoes 0.949525
lfemur 8.09962 -41.0041 -15.387
ltibia -4.36135
lfoot -17.8293 49.2859
ltoes 7.93859
66
root -0.412521 17.502 7.81476 7.5018 -2.29453 -8.02712
lowerback 2.49626 -0.0248413 4.55125
upperback -8.32133 0.46243 1.70327
thorax -10.2359 -0.061599 -0.776105
lowerneck 0.390618 -14.7581 -13.8917
upperneck 16.8981 -22.4216 14.5827
head 8.42279 -10.8447 4.862
rclavicle -2.0773e-014 2.26615e-014
rhumerus -53.5896 -36.2568 -55.5465
rradius 17.6732
rwrist 60.1872
rhand 2.43578 -29.0266
rfingers 7.12502
rthumb 27.9213 -56.9707
lclavicle -2.0773e-014 2.26615e-014
lhumerus -42.9789 15.3112 78.4546
lradius 22.916
lwrist -21.6187
lhand -19.7563 -9.01199
lfingers 7.12502
lthumb 6.5751 20.8659
rfemur -0.868416 25.0722 26.1699
rtibia 1.71424
rfoot -11.2907 -21.4078
rtoes 1.0955
lfemur 8.08413 -40.9677 -15.4117
ltibia -4.36383
lfoot -17.8414 49.2862
ltoes 7.9158
67
root -0.412491 17.5021 7.81484 7.50833 -2.31901 -8.02733
lowerback 2.48784 -0.0220706 4.55279
upperback -8.31262 0.465224 1.70194
thorax -10.2208 -0.0600799 -0.778814
lowerneck 0.375344 -14.6906 -13.9037
upperneck 16.8056 -22.3347 14.7075
head 8.39754 -10.7983 4.91761
rclavicle -8.54774e-015 3.57812e-015
rhumerus -53.586 -36.2851 -55.5178
rradius 17.6186
rwrist 60.1268
rhand 2.35541 -29.0795
rfingers 7.12502
rthumb 27.8444 -57.0362
lclavicle -8.54774e-015 3.57812e-015
lhumerus -42.9854 15.1637 78.5201
lradius 22.9753
lwrist -21.4339
lhand -19.7089 -9.02775
lfingers 7.12502
lthumb 6.62081 20.8488
rfemur -0.874184 25.1259 26.1667
rtibia 1.70828
rfoot -11.3012 -21.4397
rtoes 1.1188
lfemur 8.08078 -40.9271 -15.4029
ltibia -4.37457
lfoot -17.8678 49.2565
ltoes 7.96981
68
root -0.412289 17.5023 7.81476 7.52473 -2.32561 -8.00618
lowerback 2.47801 -0.0256874 4.53907
upperback -8.31239 0.457711 1.69172
thorax -10.2148 -0.0630475 -0.781256
lowerneck 0.440249 -14.5891 -14.0032
upperneck 16.5947 -22.2224 15.0047
head 8.34623 -10.7422 5.05235
rclavicle 4.82053e-015 -2.74323e-014
rhumerus -53.666 -36.4005 -55.3825
rradius 17.5873
rwrist 60.182
rhand 2.27233 -29.1226
rfingers 7.12502
rthumb 27.765 -57.092
lclavicle 4.82053e-015 -2.74323e-014
lhumerus -42.9793 15.0463 78.5743
lradius 23.0157
lwrist -21.2692
lhand -19.664 -8.9554
lfingers 7.12502
lthumb 6.6642 20.9197
rfemur -0.888515 25.1655 26.1381
rtibia 1.699
rfoot -11.273 -21.4912
rtoes 1.02852
lfemur 8.084 -40.9919 -15.4367
ltibia -4.37633
lfoot -17.9846 49.2899
ltoes 8.14073
69
root -0.411973 17.5021 7.81467 7.54485 -2.33031 -7.97398
lowerback 2.48498 -0.0306554 4.51896
upperback -8.32763 0.449469 1.68014
thorax -10.2363 -0.0665907 -0.7813
lowerneck 0.42793 -14.485 -14.0766
upperneck 16.4647 -22.0958 15.2268
head 8.32054 -10.6761 5.1546
rclavicle 1.78906e-014 -4.05521e-014
rhumerus -53.9247 -36.6757 -54.9773
rradius 17.5627
rwrist 60.5271
rhand 2.24605 -29.0919
rfingers 7.12502
rthumb 27.7399 -57.0654
lclavicle 1.78906e-014 -4.05521e-014
lhumerus -43.007 14.969 78.6113
lradius 23.0611
lwrist -21.1793
lhand -19.6368 -8.82608
lfingers 7.12502
lthumb 6.69044 21.0482
rfemur -0.91392 25.1528 26.09
rtibia 1.69299
rfoot -11.2283 -21.4931
rtoes 0.81676
lfemur 8.0566 -41.0086 -15.4628
ltibia -4.3667
lfoot -17.9829 49.3145
ltoes 8.10779
70
root -0.411645 17.5022 7.81452 7.53323 -2.3308 -7.98025
lowerback 2.52468 -0.0325459 4.54137
upperback -8.33863 0.451393 1.67709
thorax -10.2727 -0.0683988 -0.797079
lowerneck 0.241642 -14.4198 -13.9926
upperneck 16.5421 -21.9836 15.158
head 8.34245 -10.61 5.12334
rclavicle -1.69464e-014 3.57812e-014
rhumerus -54.279 -36.9994 -54.4579
rradius 17.5449
rwrist 60.856
rhand 2.21596 -29.0032
rfingers 7.12502
rthumb 27.7111 -56.9814
lclavicle -1.69464e-014 3.57812e-014
lhumerus -43.0465 14.9326 78.6265
lradius 23.1103
lwrist -21.1711
lhand -19.6106 -8.7354
lfingers 7.12502
lthumb 6.71572 21.1381
rfemur -0.912607 25.0933 26.0965
rtibia 1.70525
rfoot -11.2148 -21.4436
rtoes 0.75407
lfemur 8.05036 -40.9313 -15.4473
ltibia -4.36099
lfoot -17.8506 49.2728
ltoes 7.86943
71
root -0.411487 17.5023 7.81446 7.52081 -2.31078 -7.97923
lowerback 2.54505 -0.0350476 4.54458
upperback -8.34229 0.44986 1.67811
thorax -10.2893 -0.0696727 -0.797544
lowerneck 0.0034541 -14.3593 -13.8069
upperneck 16.6517 -21.8548 14.9641
head 8.35454 -10.5342 5.03614
rclavicle 7.45443e-016 2.38542e-015
rhumerus -54.6171 -37.2978 -53.9676
rradius 17.5575
rwrist 60.9935
rhand 2.18153 -28.8899
rfingers 7.12502
rthumb 27.6782 -56.8734
lclavicle 7.45443e-016 2.38542e-015
lhumerus -43.0668 14.9224 78.6319
lradius 23.1302
lwrist -21.2022
lhand -19.5865 -8.82343
lfingers 7.12502
lthumb 6.73903 21.0493
rfemur -0.889567 25.088 26.103
rtibia 1.69315
rfoot -11.227 -21.4467
rtoes 0.883972
lfemur 8.06632 -40.9373 -15.4635
ltibia -4.35422
lfoot -17.8711 49.2604
ltoes 7.73493
72
root -0.411115 17.5024 7.81429 7.52642 -2.27948 -7.97592
lowerback 2.54659 -0.0496399 4.53375
upperback -8.34887 0.431168 1.69516
thorax -10.2987 -0.0772839 -0.77107
lowerneck -0.197659 -14.2513 -13.6339
upperneck 16.6789 -21.6572 14.8136
head 8.32885 -10.4285 4.97938
rclavicle -5.76476e-015 -8.74653e-015
rhumerus -54.7871 -37.4015 -53.7194
rradius 17.6227
rwrist 60.8412
rhand 2.27419 -28.8481
rfingers 7.12502
rthumb 27.7668 -56.8172
lclavicle -5.76476e-015 -8.74653e-015
lhumerus -43.1025 14.8444 78.6877
lradius 23.1669
lwrist -21.1195
lhand -19.5211 -8.89398
lfingers 7.12502
lthumb 6.80209 20.9768
rfemur -0.884553 25.1324 26.1001
rtibia 1.69202
rfoot -11.2883 -21.4888
rtoes 1.16399
lfemur 8.05142 -40.9481 -15.4517
ltibia -4.37103
lfoot -17.7951 49.2562
ltoes 7.62863
73
root -0.410448 17.5026 7.81436 7.51882 -2.26185 -7.9884
lowerback 2.5589 -0.0503848 4.57184
upperback -8.34545 0.434014 1.69691
thorax -10.3024 -0.0789193 -0.790757
lowerneck -0.448474 -14.1368 -13.4651
upperneck 16.7164 -21.4581 14.7097
head 8.32201 -10.3165 4.93429
rclavicle 8.10048e-015 -2.82274e-014
rhumerus -54.7731 -37.2728 -53.8216
rradius 17.7282
rwrist 60.2536
rhand 2.36688 -29.0206
rfingers 7.12502
rthumb 27.8554 -56.9755
lclavicle 8.10048e-015 -2.82274e-014
lhumerus -43.1003 14.7656 78.7388
lradius 23.1673
lwrist -21.0643
lhand -19.4799 -8.85521
lfingers 7.12502
lthumb 6.84192 21.0142
rfemur -0.888405 25.0924 26.1087
rtibia 1.72044
rfoot -11.3337 -21.4572
rtoes 1.34769
lfemur 8.06328 -40.9653 -15.4372
ltibia -4.38969
lfoot -17.7789 49.2508
ltoes 7.87095
74
root -0.40985 17.5025 7.81458 7.50765 -2.26007 -7.99253
lowerback 2.56066 -0.0395707 4.61711
upperback -8.31974 0.450101 1.68309
thorax -10.2739 -0.0746098 -0.832903
lowerneck -0.865063 -14.024 -13.2682
upperneck 16.8562 -21.2607 14.5933
head 8.3752 -10.1925 4.86693
rclavicle 5.36719e-015 -6.75868e-015
rhumerus -54.7969 -37.2103 -53.8981
rradius 17.8571
rwrist 59.7027
rhand 2.4264 -29.2351
rfingers 7.12502
rthumb 27.9123 -57.1808
lclavicle 5.36719e-015 -6.75868e-015
lhumerus -43.0191 14.8387 78.706
lradius 23.0899
lwrist -21.2027
lhand -19.4799 -8.93034
lfingers 7.12502
lthumb 6.84188 20.9391
rfemur -0.893592 25.0052 26.1079
rtibia 1.73492
rfoot -11.2996 -21.3929
rtoes 1.14336
lfemur 8.08086 -40.9855 -15.4509
ltibia -4.36432
lfoot -17.9164 49.2258
ltoes 8.1163
75
root -0.409645 17.5022 7.81405 7.52012 -2.25333 -7.98672
lowerback 2.55029 -0.0500586 4.62231
upperback -8.30536 0.435385 1.68696
thorax -10.2522 -0.081459 -0.830174
lowerneck -1.19339 -13.854 -13.0366
upperneck 16.856 -20.9773 14.5051
head 8.35269 -10.0332 4.82583
rclavicle -1.64494e-014 1.90833e-014
rhumerus -54.9059 -37.2442 -53.7909
rradius 17.9446
rwrist 59.4172
rhand 2.44475 -29.2287
rfingers 7.12502
rthumb 27.9299 -57.1715
lclavicle -1.64494e-014 1.90833e-014
lhumerus -42.9859 14.9267 78.6706
lradius 23.0592
lwrist -21.2919
lhand -19.5355 -9.09249
lfingers 7.12502
lthumb 6.78823 20.7787
rfemur -0.924251 25.0161 26.0943
rtibia 1.76332
rfoot -11.3206 -21.3993
rtoes 1.091
lfemur 8.03259 -40.9228 -15.4189
ltibia -4.3543
lfoot -17.8814 49.1581
ltoes 7.9407
